# xmcd
#
# Track frame offsets:
#	150
#	17419
#	31648
#	45251
#	60791
#	74483
#	92039
#	107477
#	136249
#	148342
#	170070
#	186342
#	204005
#	216125
#	235181
#	254441
#	269239
#	287644
#	304931
#	318023
#	345755
#
# Disc length: 4820 seconds
#
# Revision: 2
# Processed by: cddbd v1.5.1PL2 Copyright (c) Steve Scherf et al.
# Submitted via: audiograbber 1.83.01
#
DISCID=2512d215
DTITLE=Oscar Benton - Music History M-Tv
DYEAR=2002
DGENRE=Blues
TTITLE0=Bensonhurst Blues
TTITLE1=Wooly Booly Boogie
TTITLE2=The Long And Winding Road
TTITLE3=Not The Same Dreams Anymore
TTITLE4=Basin Street Blues
TTITLE5=Busted
TTITLE6=I Believe In Love
TTITLE7=St. Louis Blues
TTITLE8=Never Never Leave Me
TTITLE9=If You Go Away
TTITLE10=It Ain't Nobody's Business
TTITLE11=How Can I Just Start Again
TTITLE12=My Petite Fleur
TTITLE13=The Three Bells
TTITLE14=I Feel So Good
TTITLE15=The Day I Got Rid Of The Blues
TTITLE16=Today Is Yesterday Tomorrow
TTITLE17=Rool On Sweet Mississippi
TTITLE18=Stop What You're Doing
TTITLE19=I Don't Know
TTITLE20=Bensonhurst Blues
EXTD=
EXTT0=
EXTT1=
EXTT2=
EXTT3=
EXTT4=
EXTT5=
EXTT6=
EXTT7=
EXTT8=
EXTT9=
EXTT10=
EXTT11=
EXTT12=
EXTT13=
EXTT14=
EXTT15=
EXTT16=
EXTT17=
EXTT18=
EXTT19=
EXTT20=
PLAYORDER=
